<svg width="300" height="300" viewBox="0 0 300 300" fill="none" xmlns="http://www.w3.org/2000/svg">
<rect x="99.2306" width="103.846" height="300" rx="32.5385" fill="#31437A"/>
<rect x="300" y="99.2306" width="101.538" height="300" rx="31.8154" transform="rotate(90 300 99.2306)" fill="#31437A"/>
<path d="M93.3002 96.7555C120.021 100.564 137.353 120.05 149.553 141.007C156.305 152.803 161.999 165.371 170.846 175.429C177.412 182.935 185.104 189.237 193.55 194.822C199.187 198.517 205.158 201.803 212.641 202.866C208.551 203.462 204.566 203.257 200.844 202.563C189.765 200.28 180.274 195.31 171.611 189.315C162.993 183.292 155.96 175.145 150.498 166.057C145.158 157.241 140.663 147.667 135.428 138.937C124.965 121.43 112.266 105.939 93.3002 96.7555Z" fill="white"/>
<path d="M156.741 139.768C156.741 139.768 125.045 111.877 139.803 74.4432C151.967 43.5867 169.296 37.6577 168.428 13.1292C180.982 24.2185 203.771 53.072 193.243 87.225C182.943 120.639 156.741 139.768 156.741 139.768Z" fill="white"/>
<path d="M168.428 13.1292C183.641 31.6897 183.865 54.332 176.376 76.8298C169.71 97.9725 157.914 116.543 155.178 138.652C154.851 136.734 154.211 134.211 154.167 132.234C154.009 128.798 154.272 125.241 154.759 121.82C157.145 105.543 164.367 89.9795 169.283 74.6596C176.703 52.5253 177.526 34.3768 168.428 13.1292Z" fill="#31437A"/>
<path d="M146.941 164.848C146.941 164.848 114.84 114.754 78.4343 130.713C48.4255 143.867 43.5999 155.001 12.0854 147.27C23.4965 159.207 49.0009 185.924 87.6224 181.873C122.023 178.265 146.941 164.848 146.941 164.848Z" fill="white"/>
<path d="M11.5939 147.73C27.8987 156.833 47.1705 158.609 64.9622 154.343C68.0879 153.752 71.905 152.428 74.9632 151.551C98.6796 143.194 128.714 146.422 146.916 164.879C126.311 155.042 101.822 153.713 80.3011 160.63C79.2615 160.955 77.133 161.579 76.0794 161.873C75.2535 162.105 71.2257 163.249 70.4843 163.435C67.8613 163.902 65.0659 164.486 62.4295 164.83C60.8355 164.91 56.9753 165.33 55.4162 165.333C54.254 165.307 51.8824 165.262 50.7172 165.233C36.2952 164.535 21.0782 158.923 11.5939 147.73Z" fill="#31437A"/>
</svg>
